<?xml version="1.0" standalone="no"?>
<!DOCTYPE svg PUBLIC "-//W3C//DTD SVG 20010904//EN"
 "http://www.w3.org/TR/2001/REC-SVG-20010904/DTD/svg10.dtd">
<svg version="1.0" xmlns="http://www.w3.org/2000/svg"
 width="500.000000pt" height="500.000000pt" viewBox="0 0 500.000000 500.000000"
 preserveAspectRatio="xMidYMid meet">

<g transform="translate(0.000000,500.000000) scale(0.100000,-0.100000)"
fill="#000000" stroke="none">
<path d="M1520 3831 l0 -111 110 0 110 0 0 -115 0 -115 -110 0 -110 0 0 -110
0 -110 222 -2 222 -3 4 -79 c2 -43 1 -94 -3 -112 l-6 -34 -332 2 -332 2 0
-110 0 -109 223 -3 222 -2 0 -110 0 -110 -110 0 -110 0 0 -110 0 -110 110 0
110 0 0 110 0 111 113 -3 112 -3 2 -98 c1 -54 -1 -105 -4 -113 -4 -11 -29 -14
-114 -14 l-109 0 0 -110 0 -109 111 -3 112 -3 4 -107 4 -108 -225 0 -225 0 -3
-112 -3 -113 -223 -3 -223 -2 3 -108 3 -107 110 -3 110 -3 1 -107 0 -107 112
-3 112 -3 0 -109 0 -110 938 0 c964 0 1032 2 1192 41 288 71 452 215 539 475
78 233 59 487 -52 683 -37 67 -144 181 -203 218 -41 26 -55 43 -35 43 5 0 40
30 79 66 109 100 182 220 228 374 26 89 27 316 1 410 -42 153 -136 299 -252
393 -72 59 -216 129 -307 151 -137 34 -254 38 -1190 43 l-938 5 0 -111z m670
-226 l0 -115 -115 0 -115 0 0 115 0 115 115 0 115 0 0 -115z m670 0 l0 -115
-115 0 -115 0 0 115 0 115 115 0 115 0 0 -115z m434 -310 c79 -21 114 -48 145
-114 22 -47 26 -70 26 -143 0 -80 -2 -90 -30 -130 -44 -64 -117 -97 -241 -109
-54 -5 -263 -8 -464 -7 l-365 3 -3 258 -2 257 438 0 c359 0 448 -3 496 -15z
m-884 -810 l0 -115 -110 0 -110 0 0 115 0 115 110 0 110 0 0 -115z m833 -315
c71 -10 150 -44 179 -77 10 -10 27 -41 39 -68 17 -39 21 -61 17 -114 -6 -79
-40 -162 -80 -196 -62 -52 -94 -55 -585 -55 l-453 0 0 253 c0 140 3 257 7 260
10 11 800 8 876 -3z m-1282 -472 c4 -43 4 -186 1 -200 -4 -16 -18 -18 -113
-18 l-109 0 0 -110 0 -110 -110 0 -110 0 0 110 0 110 110 0 110 0 0 115 0 115
110 0 c81 0 110 -3 111 -12z m229 -328 l0 -110 -115 0 -115 0 0 110 0 110 115
0 115 0 0 -110z"/>
<path d="M1077 3713 c-4 -3 -7 -55 -7 -115 l0 -108 110 0 110 0 0 115 0 115
-103 0 c-57 0 -107 -3 -110 -7z"/>
<path d="M850 3160 l0 -110 220 0 220 0 0 110 0 110 -220 0 -220 0 0 -110z"/>
<path d="M625 3027 c-3 -12 -5 -62 -3 -112 l3 -90 110 0 110 0 3 90 c4 139 11
131 -113 132 -100 2 -105 1 -110 -20z"/>
<path d="M1070 2710 l0 -110 -110 0 -110 0 0 -110 0 -110 110 0 110 0 0 110 0
110 110 0 110 0 0 110 0 110 -110 0 -110 0 0 -110z"/>
<path d="M400 2490 l0 -110 110 0 110 0 0 110 0 110 -110 0 -110 0 0 -110z"/>
<path d="M1070 2150 l0 -220 110 0 110 0 0 110 0 109 113 3 112 3 3 108 3 107
-226 0 -225 0 0 -220z"/>
<path d="M624 2137 c-2 -7 -3 -56 -2 -108 l3 -94 107 -3 c107 -3 107 -2 114
22 3 13 4 62 2 108 l-3 83 -108 3 c-83 2 -109 0 -113 -11z"/>
</g>
</svg>
